<svg width="150" height="30" viewBox="0 0 150 30" fill="none" xmlns="http://www.w3.org/2000/svg">
<path d="M0 0H150V20C150 25.5228 145.523 30 140 30H10C4.47715 30 0 25.5228 0 20V0Z" fill="#F9F9F9"/>
<path d="M74.0489 5.92705C74.3483 5.00574 75.6517 5.00574 75.9511 5.92705L77.4697 10.6008C77.6035 11.0128 77.9875 11.2918 78.4207 11.2918H83.335C84.3037 11.2918 84.7065 12.5314 83.9228 13.1008L79.947 15.9894C79.5966 16.244 79.4499 16.6954 79.5838 17.1074L81.1024 21.7812C81.4017 22.7025 80.3472 23.4686 79.5635 22.8992L75.5878 20.0106C75.2373 19.756 74.7627 19.756 74.4122 20.0106L70.4365 22.8992C69.6528 23.4686 68.5983 22.7025 68.8976 21.7812L70.4162 17.1074C70.5501 16.6954 70.4034 16.244 70.053 15.9894L66.0772 13.1008C65.2935 12.5314 65.6963 11.2918 66.665 11.2918H71.5793C72.0125 11.2918 72.3965 11.0128 72.5303 10.6008L74.0489 5.92705Z" fill="#FFE400"/>
</svg>
