<svg width="150" height="200" viewBox="0 0 150 200" fill="none" xmlns="http://www.w3.org/2000/svg">
<g clip-path="url(#clip0_911_5)">
<path d="M68 -0.230896L30.4618 -0.230894L-0.230923 30.4619L-0.230956 68L68 -0.230896Z" fill="#FAC301"/>
<path d="M27.2119 18.2687C26.6731 16.6103 24.3269 16.6103 23.7881 18.2687L23.0977 20.3935C22.8567 21.1352 22.1656 21.6373 21.3858 21.6373H19.1516C17.4079 21.6373 16.6829 23.8686 18.0936 24.8935L19.9011 26.2067C20.532 26.6651 20.796 27.4776 20.555 28.2192L19.8646 30.344C19.3258 32.0024 21.2238 33.3814 22.6345 32.3565L24.442 31.0433C25.0729 30.5849 25.9271 30.5849 26.558 31.0433L28.3655 32.3565C29.7762 33.3814 31.6742 32.0024 31.1354 30.344L30.445 28.2192C30.204 27.4776 30.468 26.6651 31.0989 26.2067L32.9064 24.8935C34.3171 23.8686 33.5921 21.6373 31.8484 21.6373H29.6142C28.8344 21.6373 28.1433 21.1352 27.9023 20.3935L27.2119 18.2687Z" fill="white"/>
</g>
<defs>
<clipPath id="clip0_911_5">
<rect width="150" height="200" fill="white"/>
</clipPath>
</defs>
</svg>
