<svg width="350" height="350" viewBox="0 0 350 350" fill="none" xmlns="http://www.w3.org/2000/svg">
<rect width="350" height="350" rx="100" fill="#FFE400"/>
<path d="M162.636 88.0516C166.528 76.0746 183.472 76.0746 187.364 88.0517L200.146 127.39C201.886 132.746 206.877 136.373 212.509 136.373H253.872C266.466 136.373 271.702 152.488 261.513 159.89L228.05 184.203C223.494 187.513 221.587 193.381 223.328 198.737L236.109 238.075C240.001 250.053 226.293 260.012 216.104 252.61L182.641 228.297C178.085 224.987 171.915 224.987 167.359 228.297L133.895 252.61C123.707 260.012 109.999 250.053 113.891 238.075L126.672 198.737C128.413 193.381 126.506 187.513 121.95 184.203L88.4866 159.89C78.2983 152.488 83.5344 136.373 96.1278 136.373H137.491C143.123 136.373 148.114 132.746 149.854 127.39L162.636 88.0516Z" fill="white"/>
</svg>
