<svg width="146" height="33" viewBox="0 0 146 33" fill="none" xmlns="http://www.w3.org/2000/svg">
<g clip-path="url(#clip0_214_2)">
<mask id="mask0_214_2" style="mask-type:luminance" maskUnits="userSpaceOnUse" x="0" y="0" width="146" height="33">
<path d="M145.5 0H0.5V33H145.5V0Z" fill="white"/>
</mask>
<g mask="url(#mask0_214_2)">
<g filter="url(#filter0_d_214_2)">
<path d="M13.5051 21.1715C8.87697 21.1715 5.15131 17.6506 5.15131 12.841V12.795C5.15131 8.10047 8.76126 4.41846 13.6671 4.41846C16.9531 4.41846 19.1283 5.79921 20.5399 7.75528L17.1614 10.3556C16.2357 9.22808 15.1944 8.46867 13.6208 8.46867C11.353 8.46867 9.75632 10.4017 9.75632 12.749V12.795C9.75632 15.2113 11.353 17.0983 13.6208 17.0983C15.3101 17.0983 16.282 16.3159 17.2771 15.1423L20.6556 17.5356C19.1052 19.6297 17.0688 21.1715 13.5051 21.1715Z" fill="#FFE400"/>
<path d="M21.7998 20.8494V4.7406H36.4479V20.8494H31.9586V8.69875H26.2891V20.8494H21.7998Z" fill="#FFE400"/>
<path d="M28.9631 27.6244C28.6669 27.8085 28.3028 27.9496 27.8709 28.0478C27.4512 28.146 27.0008 28.1951 26.5195 28.1951C25.2112 28.1951 24.2054 27.876 23.5019 27.2378C22.7984 26.5995 22.4467 25.6484 22.4467 24.3842V21.0336H20.9842V18.4193H22.4467V15.8235H25.9641V18.4193H28.2596V21.0336H25.9641V24.3474C25.9641 24.7033 26.0566 24.9856 26.2418 25.1942C26.4393 25.3906 26.6984 25.4888 27.0193 25.4888C27.4266 25.4888 27.7845 25.3845 28.093 25.1758L28.9631 27.6244Z" fill="white"/>
<path d="M39.9886 18.4253L35.9973 28.0294H32.5049L28.5314 18.4253H32.006L34.3223 24.2905L36.7635 18.4253H39.9886Z" fill="white"/>
<path d="M56.5007 24.0712C54.8655 24.0712 53.3845 23.7184 52.0576 23.0127C50.7465 22.2916 49.7125 21.302 48.9568 20.044C48.2163 18.786 47.846 17.3669 47.846 15.7867C47.846 14.2065 48.2241 12.7874 48.9799 11.5294C49.7357 10.2714 50.7696 9.28949 52.0808 8.58379C53.4077 7.86272 54.8887 7.5022 56.5238 7.5022C57.8507 7.5022 59.0614 7.73233 60.1569 8.19258C61.2524 8.65283 62.178 9.32019 62.9338 10.1947L60.99 12.0127C59.8176 10.7546 58.3751 10.1256 56.6626 10.1256C55.5519 10.1256 54.5568 10.3711 53.6775 10.862C52.7981 11.3376 52.1118 12.005 51.618 12.8641C51.1241 13.7233 50.8774 14.6974 50.8774 15.7867C50.8774 16.876 51.1241 17.8502 51.618 18.7093C52.1118 19.5685 52.7981 20.2435 53.6775 20.7344C54.5568 21.21 55.5519 21.4478 56.6626 21.4478C58.3751 21.4478 59.8176 20.8111 60.99 19.5378L62.9338 21.3788C62.178 22.2532 61.2445 22.9206 60.1338 23.3809C59.0383 23.8411 57.8275 24.0712 56.5007 24.0712Z" fill="white"/>
<path d="M67.4823 13.3474C68.3154 12.0587 69.7811 11.4143 71.8791 11.4143V14.1528C71.6324 14.1068 71.4084 14.0838 71.208 14.0838C70.082 14.0838 69.2026 14.4136 68.5699 15.0733C67.9373 15.7177 67.6212 16.6535 67.6212 17.8809V23.8411H64.7286V11.5524H67.4823V13.3474Z" fill="white"/>
<path d="M85.0267 17.7658C85.0267 17.9652 85.0114 18.2491 84.9804 18.6173H75.2844C75.4543 19.5224 75.894 20.2435 76.6035 20.7804C77.3287 21.302 78.2233 21.5629 79.2878 21.5629C80.6452 21.5629 81.7639 21.1179 82.6432 20.2281L84.1936 22.0001C83.6383 22.6598 82.9362 23.1584 82.0878 23.4959C81.2395 23.8334 80.2828 24.0022 79.2184 24.0022C77.8609 24.0022 76.665 23.7337 75.6316 23.1968C74.5981 22.6598 73.7956 21.9157 73.2249 20.9645C72.6695 19.998 72.3918 18.9087 72.3918 17.6968C72.3918 16.5001 72.6617 15.4262 73.2018 14.475C73.7572 13.5085 74.5208 12.7567 75.4927 12.2198C76.4646 11.6828 77.5601 11.4143 78.7787 11.4143C79.982 11.4143 81.0544 11.6828 81.9953 12.2198C82.9519 12.7414 83.6924 13.4855 84.2168 14.452C84.7569 15.4032 85.0267 16.5078 85.0267 17.7658ZM78.7787 13.7156C77.8531 13.7156 77.0663 13.9917 76.4183 14.544C75.7857 15.081 75.4001 15.802 75.2613 16.7072H82.2729C82.1494 15.8174 81.7717 15.0963 81.1391 14.544C80.5064 13.9917 79.7196 13.7156 78.7787 13.7156Z" fill="white"/>
<path d="M91.377 11.4143C93.1973 11.4143 94.5857 11.8516 95.5424 12.726C96.5143 13.5852 97.0003 14.8892 97.0003 16.6382V23.8411H94.2696V22.3453C93.9147 22.8823 93.4056 23.2965 92.7423 23.588C92.0944 23.8641 91.3076 24.0022 90.382 24.0022C89.4564 24.0022 88.6464 23.8488 87.9522 23.5419C87.258 23.2198 86.7179 22.7825 86.3324 22.2302C85.9621 21.6626 85.777 21.0259 85.777 20.3202C85.777 19.2156 86.1856 18.3334 87.0034 17.6737C87.8365 16.9987 89.1403 16.6612 90.9142 16.6612H94.1077V16.4771C94.1077 15.6179 93.8452 14.9583 93.3209 14.498C92.8118 14.0378 92.0481 13.8076 91.0299 13.8076C90.3357 13.8076 89.6494 13.915 88.9704 14.1298C88.3072 14.3446 87.7439 14.6438 87.2811 15.0273L86.1472 12.9332C86.7952 12.4422 87.5741 12.0664 88.4844 11.8055C89.3948 11.5447 90.3588 11.4143 91.377 11.4143ZM90.9836 21.9081C91.7089 21.9081 92.349 21.747 92.9043 21.4248C93.475 21.0873 93.8762 20.6117 94.1077 19.998V18.5712H91.1225C89.4564 18.5712 88.6233 19.1158 88.6233 20.2051C88.6233 20.7267 88.8316 21.141 89.2481 21.4478C89.6646 21.7546 90.2431 21.9081 90.9836 21.9081Z" fill="white"/>
<path d="M107.331 23.1737C106.991 23.4499 106.575 23.657 106.081 23.7951C105.603 23.9332 105.094 24.0022 104.554 24.0022C103.196 24.0022 102.147 23.6493 101.407 22.9436C100.666 22.2379 100.296 21.21 100.296 19.8599V13.9457H98.2595V11.6445H100.296V8.83691H103.189V11.6445H106.498V13.9457H103.189V19.7909C103.189 20.3892 103.335 20.8495 103.628 21.1716C103.921 21.4785 104.346 21.6319 104.901 21.6319C105.549 21.6319 106.089 21.4631 106.521 21.1256L107.331 23.1737Z" fill="white"/>
<path d="M114.048 24.0022C112.798 24.0022 111.671 23.7337 110.669 23.1968C109.666 22.6598 108.879 21.9157 108.309 20.9645C107.753 19.998 107.476 18.9087 107.476 17.6968C107.476 16.4848 107.753 15.4032 108.309 14.452C108.879 13.5008 109.666 12.7567 110.669 12.2198C111.671 11.6828 112.798 11.4143 114.048 11.4143C115.312 11.4143 116.446 11.6828 117.449 12.2198C118.452 12.7567 119.231 13.5008 119.786 14.452C120.357 15.4032 120.643 16.4848 120.643 17.6968C120.643 18.9087 120.357 19.998 119.786 20.9645C119.231 21.9157 118.452 22.6598 117.449 23.1968C116.446 23.7337 115.312 24.0022 114.048 24.0022ZM114.048 21.5398C115.112 21.5398 115.991 21.187 116.686 20.4813C117.38 19.7756 117.727 18.8474 117.727 17.6968C117.727 16.5461 117.38 15.6179 116.686 14.9122C115.991 14.2065 115.112 13.8537 114.048 13.8537C112.983 13.8537 112.104 14.2065 111.41 14.9122C110.731 15.6179 110.391 16.5461 110.391 17.6968C110.391 18.8474 110.731 19.7756 111.41 20.4813C112.104 21.187 112.983 21.5398 114.048 21.5398Z" fill="white"/>
<path d="M125.352 13.3474C126.185 12.0587 127.651 11.4143 129.749 11.4143V14.1528C129.502 14.1068 129.279 14.0838 129.078 14.0838C127.952 14.0838 127.073 14.4136 126.44 15.0733C125.808 15.7177 125.491 16.6535 125.491 17.8809V23.8411H122.599V11.5524H125.352V13.3474Z" fill="white"/>
<path d="M135.257 24.0022C134.254 24.0022 133.274 23.8718 132.318 23.611C131.361 23.3502 130.597 23.0203 130.027 22.6214L131.137 20.4352C131.693 20.8034 132.356 21.1026 133.128 21.3327C133.914 21.5475 134.685 21.6549 135.442 21.6549C137.169 21.6549 138.033 21.2023 138.033 20.2972C138.033 19.8676 137.809 19.5685 137.362 19.3997C136.93 19.2309 136.228 19.0698 135.257 18.9164C134.238 18.763 133.405 18.5866 132.757 18.3871C132.125 18.1877 131.569 17.8425 131.091 17.3516C130.628 16.8453 130.397 16.1472 130.397 15.2574C130.397 14.0915 130.883 13.1633 131.855 12.4729C132.842 11.7672 134.169 11.4143 135.835 11.4143C136.683 11.4143 137.532 11.5141 138.381 11.7135C139.229 11.8976 139.923 12.1507 140.463 12.4729L139.352 14.6591C138.303 14.0454 137.123 13.7386 135.812 13.7386C134.963 13.7386 134.315 13.869 133.868 14.1298C133.436 14.3753 133.22 14.7051 133.22 15.1193C133.22 15.5796 133.452 15.9095 133.914 16.1089C134.392 16.293 135.125 16.4694 136.113 16.6382C137.1 16.7916 137.91 16.968 138.543 17.1675C139.175 17.3669 139.715 17.7044 140.162 18.18C140.625 18.6556 140.857 19.3306 140.857 20.2051C140.857 21.3557 140.355 22.2763 139.352 22.9666C138.35 23.657 136.984 24.0022 135.257 24.0022Z" fill="white"/>
</g>
</g>
</g>
<defs>
<filter id="filter0_d_214_2" x="0.15131" y="1.41846" width="145.706" height="33.7766" filterUnits="userSpaceOnUse" color-interpolation-filters="sRGB">
<feFlood flood-opacity="0" result="BackgroundImageFix"/>
<feColorMatrix in="SourceAlpha" type="matrix" values="0 0 0 0 0 0 0 0 0 0 0 0 0 0 0 0 0 0 127 0" result="hardAlpha"/>
<feOffset dy="2"/>
<feGaussianBlur stdDeviation="2.5"/>
<feComposite in2="hardAlpha" operator="out"/>
<feColorMatrix type="matrix" values="0 0 0 0 0 0 0 0 0 0 0 0 0 0 0 0 0 0 0.5 0"/>
<feBlend mode="normal" in2="BackgroundImageFix" result="effect1_dropShadow_214_2"/>
<feBlend mode="normal" in="SourceGraphic" in2="effect1_dropShadow_214_2" result="shape"/>
</filter>
<clipPath id="clip0_214_2">
<rect width="146" height="33" fill="white"/>
</clipPath>
</defs>
</svg>
