<svg width="115" height="90" viewBox="0 0 115 90" fill="none" xmlns="http://www.w3.org/2000/svg">
<path d="M97.4159 7.4555C89.9718 3.97257 82.0121 1.44132 73.6905 0C72.6686 1.84772 71.4746 4.33294 70.6514 6.30992C61.8053 4.97959 53.0406 4.97959 44.3572 6.30992C43.5342 4.33294 42.3131 1.84772 41.2819 0C32.9514 1.44132 24.9826 3.98187 17.5384 7.47395C2.5235 30.1635 -1.5468 52.2894 0.488351 74.1012C10.447 81.5381 20.0982 86.0558 29.5865 89.012C31.9292 85.7878 34.0186 82.3604 35.8186 78.7482C32.3905 77.4456 29.1071 75.8381 26.0047 73.9719C26.8278 73.3622 27.6329 72.7247 28.4107 72.0687C47.333 80.9192 67.8926 80.9192 86.5889 72.0687C87.3759 72.7247 88.1808 73.3622 88.9949 73.9719C85.8833 75.8472 82.591 77.4547 79.1629 78.7575C80.9629 82.3604 83.0433 85.7971 85.395 89.0212C94.8924 86.0649 104.553 81.5474 114.511 74.1012C116.899 48.8158 110.432 26.893 97.4159 7.4555ZM38.3965 60.6872C32.7162 60.6872 28.0579 55.3842 28.0579 48.9266C28.0579 42.469 32.6167 37.1569 38.3965 37.1569C44.1764 37.1569 48.8346 42.4597 48.7351 48.9266C48.7441 55.3842 44.1764 60.6872 38.3965 60.6872ZM76.6031 60.6872C70.9228 60.6872 66.2645 55.3842 66.2645 48.9266C66.2645 42.469 70.8232 37.1569 76.6031 37.1569C82.3829 37.1569 87.0412 42.4597 86.9417 48.9266C86.9417 55.3842 82.3829 60.6872 76.6031 60.6872Z" fill="#5865F2"/>
</svg>
