<svg width="17" height="13" viewBox="0 0 17 13" fill="none" xmlns="http://www.w3.org/2000/svg">
<path d="M14.2518 1.32666C13.1791 0.840392 12.0321 0.486994 10.833 0.285767C10.6857 0.543733 10.5137 0.890704 10.3951 1.16672C9.12034 0.980985 7.85735 0.980985 6.60608 1.16672C6.48748 0.890704 6.31152 0.543733 6.16293 0.285767C4.9625 0.486994 3.81421 0.84169 2.74151 1.32923C0.577868 4.497 -0.00866002 7.58608 0.284604 10.6313C1.71965 11.6696 3.11037 12.3003 4.47763 12.7131C4.81521 12.2629 5.11629 11.7844 5.37566 11.2801C4.88168 11.0982 4.40855 10.8738 3.9615 10.6133C4.0801 10.5281 4.19611 10.4391 4.30819 10.3475C7.03489 11.5832 9.99752 11.5832 12.6916 10.3475C12.805 10.4391 12.921 10.5281 13.0383 10.6133C12.59 10.8751 12.1155 11.0995 11.6216 11.2814C11.8809 11.7844 12.1807 12.2642 12.5196 12.7143C13.8882 12.3016 15.2802 11.6709 16.7152 10.6313C17.0593 7.10112 16.1274 4.0404 14.2518 1.32666ZM5.74714 8.75852C4.92861 8.75852 4.25735 8.01816 4.25735 7.11659C4.25735 6.21501 4.91428 5.47338 5.74714 5.47338C6.58002 5.47338 7.25126 6.21372 7.23693 7.11659C7.23822 8.01816 6.58002 8.75852 5.74714 8.75852ZM11.2527 8.75852C10.4342 8.75852 9.76291 8.01816 9.76291 7.11659C9.76291 6.21501 10.4198 5.47338 11.2527 5.47338C12.0856 5.47338 12.7568 6.21372 12.7425 7.11659C12.7425 8.01816 12.0856 8.75852 11.2527 8.75852Z" fill="white"/>
</svg>
