<svg width="122" height="86" viewBox="0 0 122 86" fill="none" xmlns="http://www.w3.org/2000/svg">
<path d="M119.449 13.3369C118.043 8.08447 113.915 3.95686 108.663 2.55087C99.1527 7.63571e-07 60.9998 0 60.9998 0C60.9998 0 22.8474 7.63571e-07 13.3368 2.55087C8.08447 3.95686 3.95686 8.08447 2.55087 13.3369C7.63571e-07 22.8474 0 42.702 0 42.702C0 42.702 7.63571e-07 62.5567 2.55087 72.0673C3.95686 77.3196 8.08447 81.4472 13.3368 82.853C22.8474 85.404 60.9998 85.404 60.9998 85.404C60.9998 85.404 99.1527 85.404 108.663 82.853C113.915 81.4472 118.043 77.3196 119.449 72.0673C122 62.5567 122 42.702 122 42.702C122 42.702 121.99 22.8474 119.449 13.3369Z" fill="#FF0000"/>
<path d="M49 61.5959L80.6951 43.2981L49 25V61.5959Z" fill="white"/>
</svg>
