<svg width="16" height="12" viewBox="0 0 16 12" fill="none" xmlns="http://www.w3.org/2000/svg">
<path fill-rule="evenodd" clip-rule="evenodd" d="M14.1269 0.980258C14.7727 1.15313 15.2802 1.66062 15.4531 2.3064C15.7655 3.47573 15.7667 5.91687 15.7667 5.91687C15.7667 5.91687 15.7667 8.35802 15.4531 9.52736C15.2802 10.1731 14.7727 10.6806 14.1269 10.8535C12.9576 11.1671 8.2667 11.1671 8.2667 11.1671C8.2667 11.1671 3.57582 11.1671 2.4065 10.8535C1.76072 10.6806 1.25322 10.1731 1.08036 9.52736C0.766724 8.35802 0.766724 5.91687 0.766724 5.91687C0.766724 5.91687 0.766724 3.47573 1.08036 2.3064C1.25322 1.66062 1.76072 1.15313 2.4065 0.980258C3.57582 0.666626 8.2667 0.666626 8.2667 0.666626C8.2667 0.666626 12.9576 0.666626 14.1269 0.980258ZM10.6643 6.01499L6.79131 3.7404V8.2281L10.6643 6.01499Z" fill="white"/>
</svg>
