<svg width="500" height="500" viewBox="0 0 500 500" fill="none" xmlns="http://www.w3.org/2000/svg">
<g clip-path="url(#clip0_182_6)">
<path d="M74.5506 12.2718L250 187.714L424.54 13.1809C428.396 9.07741 433.04 5.79479 438.195 3.52985C443.35 1.2649 448.909 0.0642838 454.539 0C466.594 0 478.155 4.7886 486.68 13.3124C495.204 21.8361 499.993 33.3968 499.993 45.4513C500.099 51.0237 499.065 56.559 496.954 61.7175C494.844 66.8759 491.702 71.5487 487.72 75.4491L310.907 249.982L487.72 426.788C495.212 434.116 499.604 444.04 499.993 454.513C499.993 466.567 495.204 478.128 486.68 486.652C478.155 495.175 466.594 499.964 454.539 499.964C448.747 500.204 442.967 499.238 437.568 497.125C432.169 495.012 427.268 491.8 423.177 487.692L250 312.25L75.0052 487.238C71.1646 491.204 66.5765 494.371 61.5057 496.555C56.4348 498.74 50.9815 499.898 45.4606 499.964C33.4057 499.964 21.8445 495.175 13.3203 486.652C4.7962 478.128 0.00739554 466.567 0.00739554 454.513C-0.0985784 448.94 0.935342 443.405 3.04571 438.247C5.15608 433.088 8.29838 428.415 12.2798 424.515L189.093 249.982L12.2798 73.1766C4.78839 65.8479 0.395548 55.9238 0.00739554 45.4513C0.00739554 33.3968 4.7962 21.8361 13.3203 13.3124C21.8445 4.7886 33.4057 0 45.4606 0C56.3694 0.136354 66.8236 4.54513 74.5506 12.2718Z" fill="white"/>
</g>
<defs>
<clipPath id="clip0_182_6">
<rect width="500" height="500" fill="white"/>
</clipPath>
</defs>
</svg>
