<svg width="20" height="20" viewBox="0 0 20 20" fill="none" xmlns="http://www.w3.org/2000/svg">
<path d="M4.1665 17.5V4.16667C4.1665 3.70833 4.32984 3.31583 4.6565 2.98917C4.98261 2.66306 5.37484 2.5 5.83317 2.5H11.6665C11.3887 2.91667 11.1804 3.31611 11.0415 3.69833C10.9026 4.08 10.8332 4.51389 10.8332 5C10.8332 6 11.149 6.88194 11.7807 7.64583C12.4129 8.40972 13.2082 8.88889 14.1665 9.08333C14.4859 9.125 14.7637 9.14583 14.9998 9.14583C15.2359 9.14583 15.5137 9.125 15.8332 9.08333V17.5L9.99984 15L4.1665 17.5ZM14.1665 7.5V5.83333H12.4998V4.16667H14.1665V2.5H15.8332V4.16667H17.4998V5.83333H15.8332V7.5H14.1665Z" fill="white"/>
</svg>
