<svg width="59" height="31" viewBox="0 0 59 31" fill="none" xmlns="http://www.w3.org/2000/svg">
<path d="M10.848 21.8428C4.83804 21.8428 0 17.2522 0 10.9814V10.9214C0 4.80062 4.68779 0 11.0584 0C15.3255 0 18.1501 1.80023 19.9832 4.35056L15.5959 7.741C14.3939 6.27081 13.0417 5.28068 10.9983 5.28068C8.05338 5.28068 5.97993 7.80101 5.97993 10.8614V10.9214C5.97993 14.0718 8.05338 16.5321 10.9983 16.5321C13.1919 16.5321 14.454 15.512 15.7462 13.9818L20.1334 17.1022C18.1201 19.8326 15.4757 21.8428 10.848 21.8428Z" fill="#FAD201"/>
<path d="M21.6193 21.4228V0.420054H40.6409V21.4228H34.8112V5.58072H27.449V21.4228H21.6193Z" fill="#FAD201"/>
<path d="M30.9214 30.2559C30.5367 30.4959 30.0639 30.68 29.503 30.808C28.9581 30.936 28.3731 31 27.7481 31C26.0493 31 24.7431 30.5839 23.8296 29.7518C22.9161 28.9197 22.4593 27.6796 22.4593 26.0314V21.6628H20.5602V18.2544H22.4593V14.8699H27.0269V18.2544H30.0078V21.6628H27.0269V25.9834C27.0269 26.4474 27.1471 26.8155 27.3875 27.0875C27.6439 27.3435 27.9805 27.4715 28.3972 27.4715C28.926 27.4715 29.3908 27.3355 29.7915 27.0635L30.9214 30.2559Z" fill="white"/>
<path d="M45.2387 18.2622L40.0557 30.784H35.5206L30.3607 18.2622H34.8727L37.8807 25.9092L41.0507 18.2622H45.2387Z" fill="white"/>
<path d="M50.586 30.988V26.8115H46.355V22.7789H50.586V18.6024H54.769V22.7789H59V26.8115H54.769V30.988H50.586Z" fill="white"/>
</svg>
