<svg width="60" height="60" viewBox="0 0 60 60" fill="none" xmlns="http://www.w3.org/2000/svg">
<path fill-rule="evenodd" clip-rule="evenodd" d="M18.3625 10.0425C26.0971 9.18517 33.9029 9.18517 41.6375 10.0425C45.92 10.5225 49.375 13.895 49.8775 18.1925C50.795 26.0374 50.795 33.9626 49.8775 41.8075C49.375 46.105 45.92 49.4775 41.6375 49.9575C33.9029 50.815 26.0971 50.815 18.3625 49.9575C14.08 49.4775 10.625 46.105 10.1225 41.8075C9.20505 33.9634 9.20505 26.0391 10.1225 18.195C10.3767 16.1072 11.3284 14.1664 12.8236 12.6871C14.3187 11.2079 16.2696 10.2769 18.36 10.045M30 17.5175C30.4973 17.5175 30.9742 17.7151 31.3258 18.0667C31.6775 18.4183 31.875 18.8952 31.875 19.3925V28.125H40.6075C41.1048 28.125 41.5817 28.3226 41.9333 28.6742C42.285 29.0258 42.4825 29.5027 42.4825 30C42.4825 30.4973 42.285 30.9742 41.9333 31.3258C41.5817 31.6775 41.1048 31.875 40.6075 31.875H31.875V40.6075C31.875 41.1048 31.6775 41.5817 31.3258 41.9333C30.9742 42.285 30.4973 42.4825 30 42.4825C29.5027 42.4825 29.0258 42.285 28.6742 41.9333C28.3225 41.5817 28.125 41.1048 28.125 40.6075V31.875H19.3925C18.8952 31.875 18.4183 31.6775 18.0667 31.3258C17.715 30.9742 17.5175 30.4973 17.5175 30C17.5175 29.5027 17.715 29.0258 18.0667 28.6742C18.4183 28.3226 18.8952 28.125 19.3925 28.125H28.125V19.3925C28.125 18.8952 28.3225 18.4183 28.6742 18.0667C29.0258 17.7151 29.5027 17.5175 30 17.5175Z" fill="black"/>
</svg>
