<svg width="20" height="20" viewBox="0 0 20 20" fill="none" xmlns="http://www.w3.org/2000/svg">
<path d="M16.5625 2.5H3.43746C2.46079 2.5 1.66663 3.2475 1.66663 4.16667V15.8333C1.66663 16.7525 2.46079 17.5 3.43746 17.5H16.5625C17.5391 17.5 18.3333 16.7525 18.3333 15.8333V4.16667C18.3333 3.2475 17.5391 2.5 16.5625 2.5ZM16.5625 15.8333H3.43746C3.38996 15.8333 3.35746 15.82 3.34329 15.82C3.33746 15.82 3.33413 15.8217 3.33329 15.8267L3.32329 4.205C3.32913 4.19667 3.36663 4.16667 3.43746 4.16667H16.5625C16.6283 4.1675 16.6641 4.19 16.6666 4.17333L16.6766 15.795C16.6708 15.8033 16.6333 15.8333 16.5625 15.8333Z" fill="white"/>
<path d="M5 5.8335H10V10.8335H5V5.8335ZM10.8333 12.5002H5V14.1668H15V12.5002H11.6667H10.8333ZM11.6667 9.16683H15V10.8335H11.6667V9.16683ZM11.6667 5.8335H15V7.50016H11.6667V5.8335Z" fill="white"/>
</svg>
