<svg width="591" height="563" viewBox="0 0 591 563" fill="none" xmlns="http://www.w3.org/2000/svg">
<path d="M90.5098 313C90.5098 372.526 111.749 430.098 150.408 475.362C189.067 520.626 242.608 550.61 301.401 559.922C360.194 569.234 420.38 557.262 471.134 526.16C521.888 495.058 559.879 446.867 578.274 390.254C596.668 333.642 594.259 272.324 571.48 217.329C548.7 162.335 507.045 117.273 454.007 90.2484C400.97 63.2242 340.03 56.0115 282.148 69.9075C224.267 83.8035 173.244 117.896 138.256 166.054L198.932 210.138C223.424 176.427 259.14 152.562 299.657 142.835C340.174 133.108 382.832 138.157 419.958 157.074C457.085 175.991 486.243 207.534 502.189 246.03C518.134 284.527 519.821 327.449 506.945 367.078C494.069 406.707 467.475 440.441 431.947 462.212C396.419 483.984 354.289 492.364 313.134 485.845C271.979 479.327 234.5 458.338 207.439 426.653C180.377 394.969 165.51 354.668 165.51 313H90.5098Z" fill="white"/>
<path d="M114.557 248.929C114.659 260.288 126.235 267.926 136.718 263.551L283.911 202.121C295.732 197.188 297.252 181.055 286.56 174.001L137.934 75.9398C127.241 68.8854 113.008 76.6296 113.123 89.4388L114.557 248.929Z" fill="white"/>
<path d="M297.983 240.545V386H262.898V273.358H262.045L229.517 293.244V262.847L265.384 240.545H297.983ZM390.295 389.551C377.605 389.551 366.668 386.545 357.482 380.531C348.297 374.471 341.218 365.782 336.246 354.466C331.275 343.102 328.813 329.442 328.86 313.486C328.907 297.529 331.393 283.988 336.317 272.861C341.289 261.687 348.344 253.187 357.482 247.364C366.668 241.492 377.605 238.557 390.295 238.557C402.984 238.557 413.922 241.492 423.107 247.364C432.34 253.187 439.442 261.687 444.414 272.861C449.386 284.035 451.848 297.577 451.8 313.486C451.8 329.49 449.315 343.173 444.343 354.537C439.371 365.901 432.293 374.589 423.107 380.602C413.969 386.568 403.031 389.551 390.295 389.551ZM390.295 360.787C397.871 360.787 404.002 356.928 408.69 349.21C413.377 341.445 415.697 329.537 415.65 313.486C415.65 302.974 414.585 294.31 412.454 287.491C410.323 280.626 407.364 275.512 403.576 272.151C399.788 268.789 395.361 267.108 390.295 267.108C382.766 267.108 376.682 270.92 372.042 278.543C367.402 286.118 365.058 297.766 365.011 313.486C364.963 324.139 365.981 332.97 368.065 339.977C370.195 346.985 373.178 352.217 377.013 355.673C380.849 359.082 385.276 360.787 390.295 360.787Z" fill="white"/>
</svg>
