<svg width="591" height="563" viewBox="0 0 591 563" fill="none" xmlns="http://www.w3.org/2000/svg">
<path d="M500 313C500 372.526 478.76 430.098 440.101 475.362C401.443 520.626 347.902 550.61 289.109 559.922C230.316 569.234 170.129 557.262 119.375 526.16C68.6213 495.058 30.6304 446.867 12.2359 390.254C-6.15861 333.642 -3.74941 272.324 19.0301 217.329C41.8096 162.335 83.4645 117.273 136.502 90.2484C189.54 63.2242 250.48 56.0115 308.361 69.9075C366.242 83.8035 417.266 117.896 452.254 166.054L391.578 210.138C367.086 176.427 331.37 152.562 290.853 142.835C250.336 133.108 207.678 138.157 170.552 157.074C133.425 175.991 104.267 207.534 88.3211 246.03C72.3754 284.527 70.689 327.449 83.5651 367.078C96.4412 406.707 123.035 440.441 158.563 462.212C194.091 483.984 236.221 492.364 277.376 485.845C318.531 479.327 356.01 458.338 383.071 426.653C410.132 394.969 425 354.668 425 313H500Z" fill="white"/>
<path d="M475.953 248.929C475.851 260.288 464.275 267.926 453.791 263.551L306.599 202.121C294.777 197.188 293.258 181.055 303.95 174.001L452.576 75.9398C463.268 68.8854 477.502 76.6296 477.387 89.4388L475.953 248.929Z" fill="white"/>
<path d="M206.983 240.545V386H171.898V273.358H171.045L138.517 293.244V262.847L174.384 240.545H206.983ZM299.295 389.551C286.605 389.551 275.668 386.545 266.482 380.531C257.297 374.471 250.218 365.782 245.246 354.466C240.275 343.102 237.813 329.442 237.86 313.486C237.907 297.529 240.393 283.988 245.317 272.861C250.289 261.687 257.344 253.187 266.482 247.364C275.668 241.492 286.605 238.557 299.295 238.557C311.984 238.557 322.922 241.492 332.107 247.364C341.34 253.187 348.442 261.687 353.414 272.861C358.386 284.035 360.848 297.577 360.8 313.486C360.8 329.49 358.315 343.173 353.343 354.537C348.371 365.901 341.293 374.589 332.107 380.602C322.969 386.568 312.031 389.551 299.295 389.551ZM299.295 360.787C306.871 360.787 313.002 356.928 317.69 349.21C322.377 341.445 324.697 329.537 324.65 313.486C324.65 302.974 323.585 294.31 321.454 287.491C319.323 280.626 316.364 275.512 312.576 272.151C308.788 268.789 304.361 267.108 299.295 267.108C291.766 267.108 285.682 270.92 281.042 278.543C276.402 286.118 274.058 297.766 274.011 313.486C273.963 324.139 274.981 332.97 277.065 339.977C279.195 346.985 282.178 352.217 286.013 355.673C289.849 359.082 294.276 360.787 299.295 360.787Z" fill="white"/>
</svg>
