<svg width="542" height="552" viewBox="0 0 542 552" fill="none" xmlns="http://www.w3.org/2000/svg">
<path d="M20 2.27083e-05C8.95429 2.36393e-05 -1.53121e-05 8.95433 -1.4381e-05 20L7.91894e-07 200C1.72298e-06 211.046 8.95431 220 20 220C31.0457 220 40 211.046 40 200L40 40L200 40C211.046 40 220 31.0457 220 20C220 8.95431 211.046 6.60431e-06 200 7.53539e-06L20 2.27083e-05ZM254.142 225.858L34.1421 5.85789L5.85785 34.1422L225.858 254.142L254.142 225.858Z" fill="white"/>
<path d="M522 552C533.046 552 542 543.046 542 532V352C542 340.954 533.046 332 522 332C510.954 332 502 340.954 502 352V512H342C330.954 512 322 520.954 322 532C322 543.046 330.954 552 342 552H522ZM287.858 326.142L507.858 546.142L536.142 517.858L316.142 297.858L287.858 326.142Z" fill="white"/>
</svg>
