<svg width="532" height="542" viewBox="0 0 532 542" fill="none" xmlns="http://www.w3.org/2000/svg">
<path d="M235 255C246.046 255 255 246.046 255 235V55C255 43.9543 246.046 35 235 35C223.954 35 215 43.9543 215 55V215H55C43.9543 215 35 223.954 35 235C35 246.046 43.9543 255 55 255H235ZM0.857865 29.1421L220.858 249.142L249.142 220.858L29.1421 0.857865L0.857865 29.1421Z" fill="white"/>
<path d="M297 287C285.954 287 277 295.954 277 307L277 487C277 498.046 285.954 507 297 507C308.046 507 317 498.046 317 487L317 327L477 327C488.046 327 497 318.046 497 307C497 295.954 488.046 287 477 287L297 287ZM531.142 512.858L311.142 292.858L282.858 321.142L502.858 541.142L531.142 512.858Z" fill="white"/>
</svg>
