<svg width="500" height="500" viewBox="0 0 500 500" fill="none" xmlns="http://www.w3.org/2000/svg">
<path d="M312.5 166.667C325.437 176.37 335.937 188.951 343.169 203.415C350.402 217.88 354.167 233.829 354.167 250C354.167 266.172 350.402 282.121 343.169 296.585C335.937 311.049 325.437 323.631 312.5 333.333M368.75 104.167C390.499 121.743 408.042 143.961 420.093 169.194C432.144 194.428 438.399 222.037 438.399 250C438.399 277.963 432.144 305.573 420.093 330.806C408.042 356.039 390.499 378.257 368.75 395.834M125 312.5H83.3333C77.808 312.5 72.5089 310.305 68.6019 306.398C64.6949 302.491 62.5 297.192 62.5 291.667V208.333C62.5 202.808 64.6949 197.509 68.6019 193.602C72.5089 189.695 77.808 187.5 83.3333 187.5H125L197.917 93.7501C199.738 90.2133 202.764 87.4443 206.448 85.9437C210.132 84.4431 214.231 84.3097 218.005 85.5677C221.779 86.8257 224.979 89.392 227.026 92.803C229.073 96.2141 229.832 100.245 229.167 104.167V395.834C229.832 399.756 229.073 403.786 227.026 407.197C224.979 410.608 221.779 413.175 218.005 414.433C214.231 415.691 210.132 415.557 206.448 414.057C202.764 412.556 199.738 409.787 197.917 406.25L125 312.5Z" stroke="white" stroke-width="41.6667" stroke-linecap="round" stroke-linejoin="round"/>
</svg>
