<svg width="300" height="300" viewBox="0 0 300 300" fill="none" xmlns="http://www.w3.org/2000/svg">
<g clip-path="url(#clip0_766_42)">
<path fill-rule="evenodd" clip-rule="evenodd" d="M150 50C123.478 50 98.043 60.5357 79.2893 79.2893C60.5357 98.043 50 123.478 50 150C50 176.522 60.5357 201.957 79.2893 220.711C98.043 239.464 123.478 250 150 250C176.522 250 201.957 239.464 220.711 220.711C239.464 201.957 250 176.522 250 150C250 123.478 239.464 98.043 220.711 79.2893C201.957 60.5357 176.522 50 150 50ZM25 150C25 80.9625 80.9625 25 150 25C219.037 25 275 80.9625 275 150C275 219.037 219.037 275 150 275C80.9625 275 25 219.037 25 150ZM91.1625 103.663C93.5066 101.319 96.6854 100.003 100 100.003C103.315 100.003 106.493 101.319 108.837 103.663L112.5 107.325L116.163 103.663C117.316 102.469 118.695 101.516 120.22 100.861C121.745 100.206 123.385 99.8613 125.045 99.8469C126.705 99.8324 128.351 100.149 129.887 100.777C131.423 101.406 132.819 102.334 133.992 103.508C135.166 104.681 136.094 106.077 136.723 107.613C137.351 109.149 137.668 110.795 137.653 112.455C137.639 114.115 137.294 115.755 136.639 117.28C135.984 118.805 135.031 120.184 133.837 121.337L130.175 125L133.837 128.663C136.114 131.02 137.374 134.178 137.346 137.455C137.317 140.732 136.003 143.868 133.685 146.185C131.368 148.503 128.232 149.817 124.955 149.846C121.678 149.874 118.52 148.614 116.163 146.337L112.5 142.675L108.837 146.337C106.48 148.614 103.322 149.874 100.045 149.846C96.7675 149.817 93.6324 148.503 91.3148 146.185C88.9972 143.868 87.6826 140.732 87.6541 137.455C87.6256 134.178 88.8855 131.02 91.1625 128.663L94.825 125L91.1625 121.337C88.8191 118.993 87.5027 115.815 87.5027 112.5C87.5027 109.185 88.8191 106.007 91.1625 103.663ZM166.163 103.663C168.507 101.319 171.685 100.003 175 100.003C178.315 100.003 181.493 101.319 183.837 103.663L187.5 107.325L191.163 103.663C192.316 102.469 193.695 101.516 195.22 100.861C196.745 100.206 198.385 99.8613 200.045 99.8469C201.705 99.8324 203.351 100.149 204.887 100.777C206.423 101.406 207.819 102.334 208.992 103.508C210.166 104.681 211.094 106.077 211.723 107.613C212.351 109.149 212.668 110.795 212.653 112.455C212.639 114.115 212.294 115.755 211.639 117.28C210.984 118.805 210.031 120.184 208.838 121.337L205.175 125L208.838 128.663C211.114 131.02 212.374 134.178 212.346 137.455C212.317 140.732 211.003 143.868 208.685 146.185C206.368 148.503 203.232 149.817 199.955 149.846C196.678 149.874 193.52 148.614 191.163 146.337L187.5 142.675L183.837 146.337C181.48 148.614 178.322 149.874 175.045 149.846C171.768 149.817 168.632 148.503 166.315 146.185C163.997 143.868 162.683 140.732 162.654 137.455C162.626 134.178 163.886 131.02 166.163 128.663L169.825 125L166.163 121.337C163.819 118.993 162.503 115.815 162.503 112.5C162.503 109.185 163.819 106.007 166.163 103.663ZM108.662 190.625C120.069 180.54 134.774 174.982 150 175C165.837 175 180.337 180.912 191.35 190.625C193.836 192.82 195.349 195.912 195.555 199.222C195.762 202.532 194.645 205.789 192.45 208.275C190.255 210.761 187.163 212.274 183.853 212.48C180.543 212.687 177.286 211.57 174.8 209.375C167.96 203.319 159.136 199.984 150 200C140.488 200 131.812 203.525 125.2 209.375C122.714 211.57 119.457 212.687 116.147 212.48C112.837 212.274 109.745 210.761 107.55 208.275C105.355 205.789 104.238 202.532 104.445 199.222C104.651 195.912 106.176 192.82 108.662 190.625Z" fill="white"/>
</g>
<defs>
<clipPath id="clip0_766_42">
<rect width="300" height="300" fill="white"/>
</clipPath>
</defs>
</svg>
