<svg width="300" height="300" viewBox="0 0 300 300" fill="none" xmlns="http://www.w3.org/2000/svg">
<g clip-path="url(#clip0_766_59)">
<path fill-rule="evenodd" clip-rule="evenodd" d="M150 25C219.037 25 275 80.9625 275 150C275 219.037 219.037 275 150 275C80.9625 275 25 219.037 25 150C25 80.9625 80.9625 25 150 25ZM150 50C123.478 50 98.043 60.5357 79.2893 79.2893C60.5357 98.043 50 123.478 50 150C50 176.522 60.5357 201.957 79.2893 220.711C98.043 239.464 123.478 250 150 250C176.522 250 201.957 239.464 220.711 220.711C239.464 201.957 250 176.522 250 150C250 123.478 239.464 98.043 220.711 79.2893C201.957 60.5357 176.522 50 150 50ZM150 162.5C165.837 162.5 180.337 168.412 191.35 178.125C193.836 180.32 195.349 183.412 195.555 186.722C195.762 190.032 194.645 193.289 192.45 195.775C190.255 198.261 187.163 199.774 183.853 199.98C180.543 200.187 177.286 199.07 174.8 196.875C167.96 190.819 159.136 187.484 150 187.5C140.488 187.5 131.812 191.025 125.2 196.875C123.969 197.961 122.536 198.794 120.983 199.326C119.43 199.858 117.787 200.079 116.149 199.976C114.511 199.873 112.909 199.449 111.434 198.727C109.96 198.005 108.642 197 107.556 195.769C106.47 194.538 105.638 193.105 105.106 191.552C104.573 189.999 104.353 188.356 104.455 186.718C104.558 185.079 104.982 183.477 105.704 182.003C106.426 180.529 107.431 179.211 108.662 178.125C120.07 168.041 134.775 162.483 150 162.5ZM106.25 100C111.223 100 115.992 101.975 119.508 105.492C123.025 109.008 125 113.777 125 118.75C125 123.723 123.025 128.492 119.508 132.008C115.992 135.525 111.223 137.5 106.25 137.5C101.277 137.5 96.5081 135.525 92.9917 132.008C89.4754 128.492 87.5 123.723 87.5 118.75C87.5 113.777 89.4754 109.008 92.9917 105.492C96.5081 101.975 101.277 100 106.25 100ZM193.75 100C198.723 100 203.492 101.975 207.008 105.492C210.525 109.008 212.5 113.777 212.5 118.75C212.5 123.723 210.525 128.492 207.008 132.008C203.492 135.525 198.723 137.5 193.75 137.5C188.777 137.5 184.008 135.525 180.492 132.008C176.975 128.492 175 123.723 175 118.75C175 113.777 176.975 109.008 180.492 105.492C184.008 101.975 188.777 100 193.75 100Z" fill="#FA9601"/>
</g>
<defs>
<clipPath id="clip0_766_59">
<rect width="300" height="300" fill="white"/>
</clipPath>
</defs>
</svg>
