<svg width="300" height="300" viewBox="0 0 300 300" fill="none" xmlns="http://www.w3.org/2000/svg">
<g clip-path="url(#clip0_766_63)">
<path d="M150 25C219.037 25 275 80.9625 275 150C275 219.037 219.037 275 150 275C80.9625 275 25 219.037 25 150C25 80.9625 80.9625 25 150 25ZM150 50C123.478 50 98.043 60.5357 79.2893 79.2893C60.5357 98.043 50 123.478 50 150C50 176.522 60.5357 201.957 79.2893 220.711C98.043 239.464 123.478 250 150 250C176.522 250 201.957 239.464 220.711 220.711C239.464 201.957 250 176.522 250 150C250 123.478 239.464 98.043 220.711 79.2893C201.957 60.5357 176.522 50 150 50ZM185 173.213C186.166 172.036 187.555 171.103 189.085 170.468C190.615 169.833 192.255 169.508 193.912 169.513C195.569 169.517 197.208 169.851 198.734 170.495C200.26 171.138 201.644 172.079 202.803 173.262C203.963 174.445 204.876 175.846 205.489 177.385C206.103 178.924 206.404 180.569 206.376 182.226C206.347 183.882 205.99 185.516 205.325 187.033C204.66 188.55 203.699 189.92 202.5 191.062C188.492 204.822 169.635 212.522 150 212.5C130.365 212.522 111.508 204.822 97.5 191.062C95.1879 188.73 93.8866 185.581 93.8775 182.297C93.8685 179.013 95.1523 175.857 97.4516 173.512C99.7508 171.166 102.881 169.82 106.164 169.764C109.448 169.708 112.622 170.947 115 173.213C124.335 182.39 136.909 187.523 150 187.5C163.625 187.5 175.963 182.063 185 173.213ZM106.25 100C111.223 100 115.992 101.975 119.508 105.492C123.025 109.008 125 113.777 125 118.75C125 123.723 123.025 128.492 119.508 132.008C115.992 135.525 111.223 137.5 106.25 137.5C101.277 137.5 96.5081 135.525 92.9917 132.008C89.4754 128.492 87.5 123.723 87.5 118.75C87.5 113.777 89.4754 109.008 92.9917 105.492C96.5081 101.975 101.277 100 106.25 100ZM193.75 100C198.723 100 203.492 101.975 207.008 105.492C210.525 109.008 212.5 113.777 212.5 118.75C212.5 123.723 210.525 128.492 207.008 132.008C203.492 135.525 198.723 137.5 193.75 137.5C188.777 137.5 184.008 135.525 180.492 132.008C176.975 128.492 175 123.723 175 118.75C175 113.777 176.975 109.008 180.492 105.492C184.008 101.975 188.777 100 193.75 100Z" fill="#C8FA01"/>
</g>
<defs>
<clipPath id="clip0_766_63">
<rect width="300" height="300" fill="white"/>
</clipPath>
</defs>
</svg>
