<svg width="300" height="300" viewBox="0 0 300 300" fill="none" xmlns="http://www.w3.org/2000/svg">
<g clip-path="url(#clip0_766_30)">
<path fill-rule="evenodd" clip-rule="evenodd" d="M150 50C123.478 50 98.043 60.5357 79.2893 79.2893C60.5357 98.043 50 123.478 50 150C50 176.522 60.5357 201.957 79.2893 220.711C98.043 239.464 123.478 250 150 250C176.522 250 201.957 239.464 220.711 220.711C239.464 201.957 250 176.522 250 150C250 123.478 239.464 98.043 220.711 79.2893C201.957 60.5357 176.522 50 150 50ZM25 150C25 80.9625 80.9625 25 150 25C219.037 25 275 80.9625 275 150C275 219.037 219.037 275 150 275C80.9625 275 25 219.037 25 150ZM106.25 125C103.813 125 100.7 126.55 98.675 130.6C97.1745 133.537 94.5738 135.763 91.4396 136.791C88.3055 137.819 84.8921 137.567 81.9432 136.089C78.9943 134.611 76.749 132.028 75.6967 128.902C74.6443 125.776 74.8701 122.36 76.325 119.4C81.775 108.5 92.6625 100 106.25 100C119.838 100 130.713 108.5 136.175 119.4C137.63 122.36 137.856 125.776 136.803 128.902C135.751 132.028 133.506 134.611 130.557 136.089C127.608 137.567 124.194 137.819 121.06 136.791C117.926 135.763 115.326 133.537 113.825 130.6C111.8 126.55 108.7 125 106.25 125ZM193.75 125C191.313 125 188.2 126.55 186.175 130.6C185.447 132.081 184.434 133.402 183.193 134.489C181.952 135.576 180.508 136.407 178.945 136.933C177.381 137.46 175.729 137.671 174.084 137.556C172.438 137.441 170.831 137.001 169.356 136.262C167.882 135.523 166.568 134.499 165.49 133.25C164.413 132.001 163.594 130.55 163.079 128.983C162.565 127.415 162.366 125.762 162.494 124.117C162.622 122.472 163.075 120.869 163.825 119.4C169.287 108.5 180.162 100 193.75 100C207.338 100 218.212 108.5 223.675 119.4C225.13 122.36 225.356 125.776 224.303 128.902C223.251 132.028 221.006 134.611 218.057 136.089C215.108 137.567 211.694 137.819 208.56 136.791C205.426 135.763 202.826 133.537 201.325 130.6C199.3 126.55 196.2 125 193.75 125ZM107.55 179.225C108.636 177.993 109.955 176.988 111.43 176.266C112.905 175.544 114.508 175.12 116.147 175.018C117.786 174.915 119.429 175.137 120.983 175.671C122.536 176.204 123.969 177.038 125.2 178.125C131.825 183.975 140.488 187.5 150 187.5C159.512 187.5 168.188 183.975 174.8 178.125C177.286 175.93 180.543 174.813 183.853 175.02C187.163 175.226 190.255 176.739 192.45 179.225C194.645 181.711 195.762 184.968 195.555 188.278C195.349 191.588 193.836 194.68 191.35 196.875C179.94 206.962 165.23 212.521 150 212.5C134.77 212.521 120.06 206.962 108.65 196.875C107.418 195.789 106.413 194.47 105.691 192.995C104.969 191.52 104.545 189.917 104.443 188.278C104.34 186.639 104.562 184.996 105.096 183.442C105.629 181.889 106.463 180.456 107.55 179.225Z" fill="white"/>
</g>
<defs>
<clipPath id="clip0_766_30">
<rect width="300" height="300" fill="white"/>
</clipPath>
</defs>
</svg>
